<svg width="561.0312866210937px" height="122px" xmlns="http://www.w3.org/2000/svg" viewBox="-30.515643310546864 14 561.0312866210937 122" style="background: rgba(0, 0, 0, 0);" preserveAspectRatio="xMidYMid"><defs><linearGradient id="editing-gradient-gradient" x1="0" x2="1" y1="0.5" y2="0.5" gradientUnits="objectBoundingBox"><stop offset="0" stop-color="#f0f"></stop><stop offset="1" stop-color="#0ff"></stop></linearGradient></defs><g><g transform="translate(51.75998306274414, 98.68000030517578)"><path d="M7.17 0L10.88-18.82L10.88-18.82Q9.02-36.16 2.50-39.87L2.50-39.87L2.50-39.87Q3.84-41.54 6.02-42.46L6.02-42.46L6.02-42.46Q8.19-43.39 10.82-43.39L10.82-43.39L10.82-43.39Q13.44-43.39 15.42-42.46L15.42-42.46L15.42-42.46Q17.41-41.54 18.69-39.55L18.69-39.55L18.69-39.55Q21.12-35.78 21.12-26.75L21.12-26.75L21.12-22.14L21.12-22.14Q24.96-33.41 28.80-38.27L28.80-38.27L28.80-38.27Q32.70-43.26 37.57-43.26L37.57-43.26L37.57-43.26Q39.49-43.26 40.77-42.27L40.77-42.27L40.77-42.27Q42.05-41.28 42.69-39.81L42.69-39.81L42.69-39.81Q37.76-37.63 33.02-31.36L33.02-31.36L33.02-31.36Q28.29-25.09 25.22-16.32L25.22-16.32L21.44 0L7.17 0ZM50.05 1.28L50.05 1.28L50.05 1.28Q35.97 1.28 35.97-11.97L35.97-11.97L35.97-11.97Q35.97-21.38 41.15-27.46L41.15-27.46L41.15-27.46Q46.66-33.92 56.19-33.92L56.19-33.92L56.19-33.92Q63.10-33.92 66.62-30.72L66.62-30.72L66.62-30.72Q70.14-27.52 70.14-20.80L70.14-20.80L70.14-20.80Q70.14-10.56 64.64-4.61L64.64-4.61L64.64-4.61Q59.26 1.28 50.05 1.28ZM51.71-26.56L51.71-26.56L51.71-26.56Q50.94-24.83 50.34-22.24L50.34-22.24L50.34-22.24Q49.73-19.65 48.96-15.55L48.96-15.55L48.96-15.55Q48.19-11.46 48.19-6.40L48.19-6.40L48.19-6.40Q48.19-4.74 48.74-3.65L48.74-3.65L48.74-3.65Q49.28-2.56 50.75-2.56L50.75-2.56L50.75-2.56Q52.22-2.56 53.15-3.26L53.15-3.26L53.15-3.26Q54.08-3.97 54.78-5.63L54.78-5.63L54.78-5.63Q56.06-8.58 57.09-14.05L57.09-14.05L57.09-14.05Q58.11-19.52 58.21-21.89L58.21-21.89L58.21-21.89Q58.30-24.26 58.30-26.02L58.30-26.02L58.30-26.02Q58.30-27.78 57.79-28.93L57.79-28.93L57.79-28.93Q57.28-30.08 55.84-30.08L55.84-30.08L55.84-30.08Q54.40-30.08 53.44-29.18L53.44-29.18L53.44-29.18Q52.48-28.29 51.71-26.56ZM94.46-2.69L94.46-2.69L94.46-2.69Q91.39 1.28 83.78 1.28L83.78 1.28L83.78 1.28Q79.81 1.28 76.93-1.12L76.93-1.12L76.93-1.12Q74.05-3.52 74.05-6.98L74.05-6.98L74.05-6.98Q74.05-8.90 74.24-9.86L74.24-9.86L78.53-32.64L91.52-33.92L86.85-9.22L86.85-9.22Q86.59-7.81 86.59-6.98L86.59-6.98L86.59-6.98Q86.59-3.26 88.83-3.26L88.83-3.26L88.83-3.26Q91.33-3.26 93.12-6.66L93.12-6.66L93.12-6.66Q93.70-7.74 93.95-9.15L93.95-9.15L98.50-32.64L111.10-33.92L106.37-8.96L106.37-8.96Q106.18-8 106.18-6.98L106.18-6.98L106.18-6.98Q106.18-5.95 106.75-4.83L106.75-4.83L106.75-4.83Q107.33-3.71 109.18-3.46L109.18-3.46L109.18-3.46Q108.80-1.92 107.46-0.90L107.46-0.90L107.46-0.90Q104.64 1.28 101.60 1.28L101.60 1.28L101.60 1.28Q98.56 1.28 96.77 0.19L96.77 0.19L96.77 0.19Q94.98-0.90 94.46-2.69ZM133.70-22.46L133.70-22.46L133.70-22.46Q134.59-24.83 134.59-26.88L134.59-26.88L134.59-26.88Q134.59-30.66 131.52-30.66L131.52-30.66L131.52-30.66Q129.92-30.66 128.61-29.22L128.61-29.22L128.61-29.22Q127.30-27.78 127.30-25.98L127.30-25.98L127.30-25.98Q127.30-24.70 128.32-23.68L128.32-23.68L128.32-23.68Q129.79-22.27 133.57-19.97L133.57-19.97L133.57-19.97Q137.34-17.66 138.78-15.78L138.78-15.78L138.78-15.78Q140.22-13.89 140.22-11.30L140.22-11.30L140.22-11.30Q140.22-8.70 138.98-6.34L138.98-6.34L138.98-6.34Q137.73-3.97 135.49-2.30L135.49-2.30L135.49-2.30Q130.69 1.28 123.01 1.28L123.01 1.28L123.01 1.28Q118.85 1.28 115.65-0.90L115.65-0.90L115.65-0.90Q112.45-3.01 112.45-5.50L112.45-5.50L112.45-5.50Q112.45-8 114.27-9.47L114.27-9.47L114.27-9.47Q116.10-10.94 118.78-10.94L118.78-10.94L118.78-10.94Q121.47-10.94 123.14-9.92L123.14-9.92L123.14-9.92Q122.30-7.81 122.30-6.40L122.30-6.40L122.30-6.40Q122.30-2.18 125.89-2.18L125.89-2.18L125.89-2.18Q127.42-2.18 128.45-3.14L128.45-3.14L128.45-3.14Q129.47-4.10 129.47-5.76L129.47-5.76L129.47-5.76Q129.47-9.02 123.97-12.48L123.97-12.48L123.97-12.48Q119.49-15.42 118.46-16.58L118.46-16.58L118.46-16.58Q116.74-18.62 116.74-21.18L116.74-21.18L116.74-21.18Q116.74-23.74 117.95-26.18L117.95-26.18L117.95-26.18Q119.17-28.61 121.41-30.34L121.41-30.34L121.41-30.34Q126.08-33.92 134.21-33.92L134.21-33.92L134.21-33.92Q138.37-33.92 140.83-32.26L140.83-32.26L140.83-32.26Q143.30-30.59 143.30-27.78L143.30-27.78L143.30-27.78Q143.30-24.96 141.60-23.36L141.60-23.36L141.60-23.36Q139.90-21.76 136.83-21.76L136.83-21.76L136.83-21.76Q134.72-21.76 133.70-22.46ZM171.58-10.82L171.58-10.82L171.58-10.82Q173.18-9.73 173.18-7.33L173.18-7.33L173.18-7.33Q173.18-4.93 171.97-3.39L171.97-3.39L171.97-3.39Q170.75-1.86 168.77-0.83L168.77-0.83L168.77-0.83Q164.67 1.28 160.26 1.28L160.26 1.28L160.26 1.28Q155.84 1.28 153.25 0.32L153.25 0.32L153.25 0.32Q150.66-0.64 148.93-2.43L148.93-2.43L148.93-2.43Q145.54-5.82 145.54-12.03L145.54-12.03L145.54-12.03Q145.54-21.70 150.78-27.58L150.78-27.58L150.78-27.58Q156.42-33.92 166.21-33.92L166.21-33.92L166.21-33.92Q172.29-33.92 175.30-31.36L175.30-31.36L175.30-31.36Q177.54-29.44 177.54-26.30L177.54-26.30L177.54-26.30Q177.54-15.04 158.08-15.04L158.08-15.04L158.08-15.04Q157.82-13.38 157.82-11.97L157.82-11.97L157.82-11.97Q157.82-9.02 159.14-7.90L159.14-7.90L159.14-7.90Q160.45-6.78 162.88-6.78L162.88-6.78L162.88-6.78Q165.31-6.78 167.90-7.90L167.90-7.90L167.90-7.90Q170.50-9.02 171.58-10.82ZM158.53-17.79L158.53-17.79L158.53-17.79Q163.07-17.79 165.70-20.61L165.70-20.61L165.70-20.61Q168.32-23.30 168.32-27.58L168.32-27.58L168.32-27.58Q168.32-29.06 167.78-29.86L167.78-29.86L167.78-29.86Q167.23-30.66 166.14-30.66L166.14-30.66L166.14-30.66Q165.06-30.66 164.13-30.24L164.13-30.24L164.13-30.24Q163.20-29.82 162.24-28.42L162.24-28.42L162.24-28.42Q159.87-25.22 158.53-17.79ZM204.67-37.12L204.67-37.12L204.67-37.12Q205.57-38.66 205.57-40.32L205.57-40.32L205.57-40.32Q205.57-43.26 203.78-43.26L203.78-43.26L203.78-43.26Q201.02-43.26 199.87-37.63L199.87-37.63L198.91-32.64L204.74-32.64L204.35-29.76L198.34-29.76L192.58 0L179.65 1.28L185.79-29.76L181.25-29.76L181.82-32.64L186.30-32.64L187.65-37.70L187.65-37.70Q188.80-42.37 193.73-44.54L193.73-44.54L193.73-44.54Q197.31-46.08 203.33-46.08L203.33-46.08L203.33-46.08Q209.34-46.08 212.03-44.54L212.03-44.54L212.03-44.54Q214.72-43.01 214.72-40.96L214.72-40.96L214.72-40.96Q214.72-38.91 213.12-37.63L213.12-37.63L213.12-37.63Q211.52-36.35 209.73-36.35L209.73-36.35L209.73-36.35Q206.21-36.35 204.67-37.12ZM201.41-3.78L201.41-3.78L201.41-3.78Q201.41-6.21 203.30-7.55L203.30-7.55L203.30-7.55Q205.18-8.90 207.87-8.90L207.87-8.90L207.87-8.90Q210.56-8.90 212.19-7.55L212.19-7.55L212.19-7.55Q213.82-6.21 213.82-3.78L213.82-3.78L213.82-3.78Q213.82-1.34 212-0.03L212-0.03L212-0.03Q210.18 1.28 207.49 1.28L207.49 1.28L207.49 1.28Q204.80 1.28 203.10-0.03L203.10-0.03L203.10-0.03Q201.41-1.34 201.41-3.78ZM244.74-29.57L244.74-29.57L244.74-29.57Q245.70-31.49 245.70-33.28L245.70-33.28L245.70-33.28Q245.70-35.07 245.50-36.06L245.50-36.06L245.50-36.06Q245.31-37.06 244.86-37.82L244.86-37.82L244.86-37.82Q243.90-39.49 241.98-39.49L241.98-39.49L241.98-39.49Q239.62-39.49 237.70-37.76L237.70-37.76L237.70-37.76Q235.65-35.97 235.65-33.15L235.65-33.15L235.65-33.15Q235.65-31.36 236.90-29.98L236.90-29.98L236.90-29.98Q238.14-28.61 240.06-27.33L240.06-27.33L240.06-27.33Q241.98-26.05 244.16-24.77L244.16-24.77L244.16-24.77Q246.34-23.49 248.26-21.95L248.26-21.95L248.26-21.95Q252.67-18.43 252.67-13.70L252.67-13.70L252.67-13.70Q252.67-10.50 250.98-7.78L250.98-7.78L250.98-7.78Q249.28-5.06 246.46-3.07L246.46-3.07L246.46-3.07Q240.32 1.28 232.19 1.28L232.19 1.28L232.19 1.28Q225.60 1.28 222.21-0.86L222.21-0.86L222.21-0.86Q218.82-3.01 218.82-6.27L218.82-6.27L218.82-6.27Q218.82-12.10 223.36-13.57L223.36-13.57L223.36-13.57Q224.64-14.02 226.59-14.02L226.59-14.02L226.59-14.02Q228.54-14.02 230.78-13.18L230.78-13.18L230.78-13.18Q229.76-10.56 229.76-8.19L229.76-8.19L229.76-8.19Q229.76-3.07 233.41-3.07L233.41-3.07L233.41-3.07Q235.78-3.07 237.73-4.80L237.73-4.80L237.73-4.80Q239.68-6.53 239.68-8.48L239.68-8.48L239.68-8.48Q239.68-10.43 238.43-11.84L238.43-11.84L238.43-11.84Q237.18-13.25 235.33-14.37L235.33-14.37L235.33-14.37Q233.47-15.49 231.33-16.58L231.33-16.58L231.33-16.58Q229.18-17.66 227.33-19.20L227.33-19.20L227.33-19.20Q222.98-22.72 222.98-28.35L222.98-28.35L222.98-28.35Q222.98-32 224.77-34.85L224.77-34.85L224.77-34.85Q226.56-37.70 229.44-39.62L229.44-39.62L229.44-39.62Q235.20-43.52 242.27-43.52L242.27-43.52L242.27-43.52Q249.34-43.52 252.77-41.41L252.77-41.41L252.77-41.41Q256.19-39.30 256.19-35.71L256.19-35.71L256.19-35.71Q256.19-32.58 253.76-30.59L253.76-30.59L253.76-30.59Q251.65-28.93 249.09-28.93L249.09-28.93L249.09-28.93Q246.53-28.93 244.74-29.57ZM260.32-1.92L260.32-1.92L260.32-1.92Q258.82-3.58 258.14-6.21L258.14-6.21L258.14-6.21Q257.47-8.83 257.47-13.12L257.47-13.12L257.47-13.12Q257.47-17.41 258.94-21.31L258.94-21.31L258.94-21.31Q260.42-25.22 263.10-28.03L263.10-28.03L263.10-28.03Q268.61-33.92 277.70-33.92L277.70-33.92L277.70-33.92Q280.96-33.92 283.33-32.83L283.33-32.83L294.27-33.92L289.54-8.96L289.54-8.96Q289.34-8.19 289.34-6.78L289.34-6.78L289.34-6.78Q289.34-5.38 290.21-4.48L290.21-4.48L290.21-4.48Q291.07-3.58 292.35-3.46L292.35-3.46L292.35-3.46Q291.71-1.28 289.38 0L289.38 0L289.38 0Q287.04 1.28 284.42 1.28L284.42 1.28L284.42 1.28Q281.79 1.28 280.03 0.29L280.03 0.29L280.03 0.29Q278.27-0.70 277.76-2.37L277.76-2.37L277.76-2.37Q276.74-0.77 274.56 0.26L274.56 0.26L274.56 0.26Q272.38 1.28 269.47 1.28L269.47 1.28L269.47 1.28Q266.56 1.28 264.19 0.51L264.19 0.51L264.19 0.51Q261.82-0.26 260.32-1.92ZM273.82-27.90L273.82-27.90L273.82-27.90Q273.09-26.75 272.45-24.80L272.45-24.80L272.45-24.80Q271.81-22.85 270.75-17.63L270.75-17.63L270.75-17.63Q269.70-12.42 269.70-8.70L269.70-8.70L269.70-8.70Q269.70-4.99 270.27-3.90L270.27-3.90L270.27-3.90Q270.85-2.82 271.87-2.82L271.87-2.82L271.87-2.82Q273.92-2.82 275.42-4.77L275.42-4.77L275.42-4.77Q276.93-6.72 277.50-10.18L277.50-10.18L280.90-28.93L280.90-28.93Q279.55-30.08 277.98-30.08L277.98-30.08L277.98-30.08Q276.42-30.08 275.49-29.57L275.49-29.57L275.49-29.57Q274.56-29.06 273.82-27.90ZM313.02-3.52L313.02-3.52L313.02-3.52Q311.04 1.28 304.70 1.28L304.70 1.28L304.70 1.28Q301.50 1.28 299.46-0.96L299.46-0.96L299.46-0.96Q297.79-2.82 297.79-4.93L297.79-4.93L297.79-4.93Q297.79-9.73 300.03-20.22L300.03-20.22L304.70-44.80L317.70-46.08L311.49-13.70L311.49-13.70Q310.40-8.96 310.40-7.30L310.40-7.30L310.40-7.30Q310.40-3.65 313.02-3.52ZM321.25-1.92L321.25-1.92L321.25-1.92Q319.74-3.58 319.07-6.21L319.07-6.21L319.07-6.21Q318.40-8.83 318.40-13.12L318.40-13.12L318.40-13.12Q318.40-17.41 319.87-21.31L319.87-21.31L319.87-21.31Q321.34-25.22 324.03-28.03L324.03-28.03L324.03-28.03Q329.54-33.92 338.62-33.92L338.62-33.92L338.62-33.92Q341.89-33.92 344.26-32.83L344.26-32.83L355.20-33.92L350.46-8.96L350.46-8.96Q350.27-8.19 350.27-6.78L350.27-6.78L350.27-6.78Q350.27-5.38 351.14-4.48L351.14-4.48L351.14-4.48Q352.00-3.58 353.28-3.46L353.28-3.46L353.28-3.46Q352.64-1.28 350.30 0L350.30 0L350.30 0Q347.97 1.28 345.34 1.28L345.34 1.28L345.34 1.28Q342.72 1.28 340.96 0.29L340.96 0.29L340.96 0.29Q339.20-0.70 338.69-2.37L338.69-2.37L338.69-2.37Q337.66-0.77 335.49 0.26L335.49 0.26L335.49 0.26Q333.31 1.28 330.40 1.28L330.40 1.28L330.40 1.28Q327.49 1.28 325.12 0.51L325.12 0.51L325.12 0.51Q322.75-0.26 321.25-1.92ZM334.75-27.90L334.75-27.90L334.75-27.90Q334.02-26.75 333.38-24.80L333.38-24.80L333.38-24.80Q332.74-22.85 331.68-17.63L331.68-17.63L331.68-17.63Q330.62-12.42 330.62-8.70L330.62-8.70L330.62-8.70Q330.62-4.99 331.20-3.90L331.20-3.90L331.20-3.90Q331.78-2.82 332.80-2.82L332.80-2.82L332.80-2.82Q334.85-2.82 336.35-4.77L336.35-4.77L336.35-4.77Q337.86-6.72 338.43-10.18L338.43-10.18L341.82-28.93L341.82-28.93Q340.48-30.08 338.91-30.08L338.91-30.08L338.91-30.08Q337.34-30.08 336.42-29.57L336.42-29.57L336.42-29.57Q335.49-29.06 334.75-27.90ZM390.85-7.10L390.85-7.10L390.85-7.10Q390.85-4.29 393.73-3.46L393.73-3.46L393.73-3.46Q393.02-1.09 390.27 0.19L390.27 0.19L390.27 0.19Q387.97 1.28 385.44 1.28L385.44 1.28L385.44 1.28Q382.91 1.28 381.60 0.61L381.60 0.61L381.60 0.61Q380.29-0.06 379.58-1.15L379.58-1.15L379.58-1.15Q378.43-2.82 378.43-5.95L378.43-5.95L378.43-5.95Q378.43-7.81 379.46-12.93L379.46-12.93L380.35-17.79L380.35-17.79Q381.44-23.36 381.44-25.41L381.44-25.41L381.44-25.41Q381.44-28.99 379.46-28.99L379.46-28.99L379.46-28.99Q376.96-28.99 375.36-25.34L375.36-25.34L375.36-25.34Q374.72-23.94 374.27-21.82L374.27-21.82L369.92 0L357.06 1.28L366.08-44.80L378.94-46.08L378.43-43.52L378.43-43.52Q376.64-33.66 375.10-30.34L375.10-30.34L375.10-30.34Q378.69-33.92 385.28-33.92L385.28-33.92L385.28-33.92Q392.26-33.92 393.54-29.31L393.54-29.31L393.54-29.31Q393.98-27.84 393.98-26.56L393.98-26.56L393.98-26.56Q393.98-25.28 393.89-24.29L393.89-24.29L393.89-24.29Q393.79-23.30 393.47-21.50L393.47-21.50L392.64-16.90L391.17-9.66L391.17-9.66Q390.85-8.19 390.85-7.10Z" fill="url(#editing-gradient-gradient)"></path></g></g><style>text {
  font-size: 64px;
  font-family: Arial Black;
  dominant-baseline: central;
  text-anchor: middle;
}</style></svg>